<svg width="32" height="32" viewBox="0 0 32 32" fill="none" xmlns="http://www.w3.org/2000/svg">
<path d="M14.7337 19.9333L12.267 22.4C11.747 22.92 10.9203 22.92 10.387 22.4133C10.2403 22.2666 10.0937 22.1333 9.94699 21.9866C8.57366 20.6 7.33366 19.1466 6.22699 17.6266C5.13366 16.1066 4.25366 14.5866 3.61366 13.08C2.98699 11.56 2.66699 10.1066 2.66699 8.71996C2.66699 7.81329 2.82699 6.94663 3.14699 6.14663C3.46699 5.33329 3.97366 4.58663 4.68033 3.91996C5.53366 3.07996 6.46699 2.66663 7.45366 2.66663C7.82699 2.66663 8.20033 2.74663 8.53366 2.90663C8.88033 3.06663 9.18699 3.30663 9.42699 3.65329L12.5203 8.01329C12.7603 8.34663 12.9337 8.65329 13.0537 8.94663C13.1737 9.22663 13.2403 9.50663 13.2403 9.75996C13.2403 10.08 13.147 10.4 12.9603 10.7066C12.787 11.0133 12.5337 11.3333 12.2137 11.6533L11.2003 12.7066C11.0537 12.8533 10.987 13.0266 10.987 13.24C10.987 13.3466 11.0003 13.44 11.027 13.5466C11.067 13.6533 11.107 13.7333 11.1337 13.8133C11.3737 14.2533 11.787 14.8266 12.3737 15.52C12.9737 16.2133 13.6137 16.92 14.307 17.6266C14.4403 17.76 14.587 17.8933 14.7203 18.0266C15.2537 18.5466 15.267 19.4 14.7337 19.9333Z" fill="#2263E3"/>
<path d="M29.2931 24.44C29.2931 24.8133 29.2265 25.2 29.0931 25.5733C29.0531 25.68 29.0131 25.7866 28.9598 25.8933C28.7331 26.3733 28.4398 26.8266 28.0531 27.2533C27.3998 27.9733 26.6798 28.4933 25.8665 28.8266C25.8531 28.8266 25.8398 28.84 25.8265 28.84C25.0398 29.16 24.1865 29.3333 23.2665 29.3333C21.9065 29.3333 20.4531 29.0133 18.9198 28.36C17.3865 27.7066 15.8531 26.8266 14.3331 25.72C13.8131 25.3333 13.2931 24.9466 12.7998 24.5333L17.1598 20.1733C17.5331 20.4533 17.8665 20.6666 18.1465 20.8133C18.2131 20.84 18.2931 20.88 18.3865 20.92C18.4931 20.96 18.5998 20.9733 18.7198 20.9733C18.9465 20.9733 19.1198 20.8933 19.2665 20.7466L20.2798 19.7466C20.6131 19.4133 20.9331 19.16 21.2398 19C21.5465 18.8133 21.8531 18.72 22.1865 18.72C22.4398 18.72 22.7065 18.7733 22.9998 18.8933C23.2931 19.0133 23.5998 19.1866 23.9331 19.4133L28.3465 22.5466C28.6931 22.7866 28.9331 23.0666 29.0798 23.4C29.2131 23.7333 29.2931 24.0666 29.2931 24.44Z" fill="#2263E3"/>
</svg>
