<svg width="132" height="20" viewBox="0 0 132 20" fill="none" xmlns="http://www.w3.org/2000/svg">
<path d="M11.4421 2.92513L12.9087 5.85847C13.1087 6.2668 13.6421 6.65847 14.0921 6.73347L16.7504 7.17513C18.4504 7.45847 18.8504 8.6918 17.6254 9.90847L15.5587 11.9751C15.2087 12.3251 15.0171 13.0001 15.1254 13.4835L15.7171 16.0418C16.1837 18.0668 15.1087 18.8501 13.3171 17.7918L10.8254 16.3168C10.3754 16.0501 9.63375 16.0501 9.17541 16.3168L6.68375 17.7918C4.90041 18.8501 3.81708 18.0585 4.28375 16.0418L4.87541 13.4835C4.98375 13.0001 4.79208 12.3251 4.44208 11.9751L2.37541 9.90847C1.15875 8.6918 1.55041 7.45847 3.25041 7.17513L5.90875 6.73347C6.35041 6.65847 6.88375 6.2668 7.08375 5.85847L8.55041 2.92513C9.35041 1.33347 10.6504 1.33347 11.4421 2.92513Z" fill="#2263E3"/>
<path d="M39.4421 2.92513L40.9087 5.85847C41.1087 6.2668 41.6421 6.65847 42.0921 6.73347L44.7504 7.17513C46.4504 7.45847 46.8504 8.6918 45.6254 9.90847L43.5587 11.9751C43.2087 12.3251 43.0171 13.0001 43.1254 13.4835L43.7171 16.0418C44.1837 18.0668 43.1087 18.8501 41.3171 17.7918L38.8254 16.3168C38.3754 16.0501 37.6337 16.0501 37.1754 16.3168L34.6837 17.7918C32.9004 18.8501 31.8171 18.0585 32.2837 16.0418L32.8754 13.4835C32.9837 13.0001 32.7921 12.3251 32.4421 11.9751L30.3754 9.90847C29.1587 8.6918 29.5504 7.45847 31.2504 7.17513L33.9087 6.73347C34.3504 6.65847 34.8837 6.2668 35.0837 5.85847L36.5504 2.92513C37.3504 1.33347 38.6504 1.33347 39.4421 2.92513Z" fill="#2263E3"/>
<path d="M67.4421 2.92513L68.9087 5.85847C69.1087 6.2668 69.6421 6.65847 70.0921 6.73347L72.7504 7.17513C74.4504 7.45847 74.8504 8.6918 73.6254 9.90847L71.5587 11.9751C71.2087 12.3251 71.0171 13.0001 71.1254 13.4835L71.7171 16.0418C72.1837 18.0668 71.1087 18.8501 69.3171 17.7918L66.8254 16.3168C66.3754 16.0501 65.6337 16.0501 65.1754 16.3168L62.6837 17.7918C60.9004 18.8501 59.8171 18.0585 60.2837 16.0418L60.8754 13.4835C60.9837 13.0001 60.7921 12.3251 60.4421 11.9751L58.3754 9.90847C57.1587 8.6918 57.5504 7.45847 59.2504 7.17513L61.9087 6.73347C62.3504 6.65847 62.8837 6.2668 63.0837 5.85847L64.5504 2.92513C65.3504 1.33347 66.6504 1.33347 67.4421 2.92513Z" fill="#2263E3"/>
<path d="M95.4421 2.92501L96.9087 5.85835C97.1087 6.26668 97.6421 6.65835 98.0921 6.73335L100.75 7.17501C102.45 7.45835 102.85 8.69168 101.625 9.90835L99.5587 11.975C99.2087 12.325 99.0171 13 99.1254 13.4833L99.7171 16.0417C100.184 18.0667 99.1087 18.85 97.3171 17.7917L94.8254 16.3167C94.3754 16.05 93.6337 16.05 93.1754 16.3167L90.6837 17.7917C88.9004 18.85 87.8171 18.0583 88.2837 16.0417L88.8754 13.4833C88.9837 13 88.7921 12.325 88.4421 11.975L86.3754 9.90835C85.1587 8.69168 85.5504 7.45835 87.2504 7.17501L89.9087 6.73335C90.3504 6.65835 90.8837 6.26668 91.0837 5.85835L92.5504 2.92501C93.3504 1.33335 94.6504 1.33335 95.4421 2.92501Z" stroke="#E9EFFC" stroke-width="1.5" stroke-linecap="round" stroke-linejoin="round"/>
<path d="M123.442 2.92501L124.909 5.85835C125.109 6.26668 125.642 6.65835 126.092 6.73335L128.75 7.17501C130.45 7.45835 130.85 8.69168 129.625 9.90835L127.559 11.975C127.209 12.325 127.017 13 127.125 13.4833L127.717 16.0417C128.184 18.0667 127.109 18.85 125.317 17.7917L122.825 16.3167C122.375 16.05 121.634 16.05 121.175 16.3167L118.684 17.7917C116.9 18.85 115.817 18.0583 116.284 16.0417L116.875 13.4833C116.984 13 116.792 12.325 116.442 11.975L114.375 9.90835C113.159 8.69168 113.55 7.45835 115.25 7.17501L117.909 6.73335C118.35 6.65835 118.884 6.26668 119.084 5.85835L120.55 2.92501C121.35 1.33335 122.65 1.33335 123.442 2.92501Z" stroke="#E9EFFC" stroke-width="1.5" stroke-linecap="round" stroke-linejoin="round"/>
</svg>
