<svg width="72" height="72" viewBox="0 0 72 72" fill="none" xmlns="http://www.w3.org/2000/svg">
<rect width="72" height="72" rx="16" fill="#E9EFFC"/>
<g clip-path="url(#clip0_32952_2127)">
<path d="M49.3594 16H22.6406C18.9731 16 16 19.0445 16 22.8V49.136C16 52.8915 18.9731 55.936 22.6406 55.936H49.3594C53.0269 55.936 56 52.8915 56 49.136V22.8C56 19.0445 53.0269 16 49.3594 16Z" fill="#470137"/>
<path d="M37.0274 26.5024L32.0364 34.9381L37.3762 43.8957C37.4106 43.9584 37.4201 44.032 37.4031 44.1018C37.3948 44.1315 37.377 44.1389 37.3496 44.14L37.3193 44.1395L37.2824 44.1386C37.2624 44.1386 37.2401 44.1395 37.2153 44.1437H33.3653L33.2896 44.1424C33.0821 44.1368 32.9326 44.1064 32.8415 43.9506C32.4853 43.2399 32.1275 42.5301 31.7681 41.8211C31.4466 41.1888 31.1164 40.5612 30.7774 39.9384L30.6278 39.6642C30.2224 38.9265 29.8244 38.1846 29.4337 37.4386H29.4068C29.0461 38.1768 28.6748 38.9095 28.2932 39.6367C27.9083 40.3695 27.5282 41.0976 27.1528 41.8211C26.7771 42.5451 26.3925 43.2641 25.999 43.9781C25.9357 44.1237 25.8306 44.1541 25.6842 44.1591L25.6232 44.16H21.9471L21.9312 44.1605L21.8787 44.1653C21.8495 44.1671 21.832 44.1607 21.8264 44.1155C21.8163 44.0485 21.8307 43.9801 21.8667 43.9232L27.0454 35.2128L22.0007 26.4752C21.9472 26.4023 21.9382 26.3427 21.9739 26.2967C21.9937 26.2732 22.0185 26.2548 22.0465 26.2428C22.0744 26.2309 22.1047 26.2258 22.1349 26.2279H25.9184C26.0009 26.2233 26.0834 26.2374 26.1599 26.2691C26.224 26.3064 26.2792 26.3581 26.3209 26.4203C26.6429 27.1531 27.0007 27.8858 27.3943 28.6184C27.7849 29.3463 28.1829 30.0699 28.5884 30.7891C28.9876 31.4973 29.3591 32.2214 29.702 32.9599H29.7289C30.0802 32.2216 30.4425 31.4888 30.8156 30.7618C31.182 30.0473 31.5577 29.3283 31.9424 28.6047C32.3222 27.8904 32.6935 27.1714 33.056 26.4479C33.0767 26.38 33.1135 26.3186 33.1634 26.2691C33.2297 26.2348 33.3041 26.2204 33.3781 26.2279H36.8932C36.9255 26.2196 36.9596 26.2223 36.9903 26.2356C37.021 26.2489 37.0466 26.272 37.0633 26.3015C37.0801 26.331 37.087 26.3652 37.0831 26.3991C37.0792 26.433 37.0647 26.4646 37.0417 26.4893L37.0274 26.5024ZM44.9134 44.4981L44.7284 44.5002C43.4933 44.5195 42.2695 44.2567 41.146 43.7309C40.0995 43.2349 39.2246 42.4252 38.6371 41.409C38.0447 40.4015 37.7408 39.1463 37.7254 37.6434L37.7248 37.521C37.7147 36.2599 38.0295 35.0183 38.6373 33.9215C39.2456 32.8358 40.1324 31.9414 41.2017 31.3349L41.2937 31.2837C42.4562 30.6242 43.8605 30.2944 45.5065 30.2944L45.5784 30.2952L45.6606 30.2979L45.7528 30.3021L45.8553 30.3082L46.0274 30.3207L46.2224 30.3367L46.3651 30.3495V24.9363C46.3651 24.8082 46.4187 24.7441 46.526 24.744H49.9071C49.929 24.7408 49.9513 24.7429 49.9722 24.75C49.9932 24.7572 50.0122 24.7692 50.0279 24.7852C50.0435 24.8012 50.0552 24.8207 50.0622 24.8422C50.0692 24.8636 50.0712 24.8864 50.0681 24.9088V41.148C50.0681 41.4208 50.0784 41.7143 50.099 42.0287L50.149 42.7415L50.1756 43.1538C50.1789 43.2109 50.1653 43.2677 50.1365 43.3167C50.1078 43.3658 50.0652 43.4048 50.0145 43.4287C49.1422 43.8011 48.2337 44.0774 47.3043 44.2528C46.5153 44.402 45.7156 44.4841 44.9134 44.4981ZM46.3651 41.093V33.5917C46.2201 33.5515 46.072 33.5239 45.9224 33.5093C45.7396 33.4904 45.556 33.4812 45.3723 33.4818C44.7211 33.4751 44.0776 33.6257 43.494 33.9215C42.9256 34.211 42.4402 34.6465 42.0853 35.1855C41.731 35.716 41.5478 36.4088 41.5357 37.2639L41.5351 37.3562C41.5221 37.9551 41.6176 38.5513 41.8168 39.1146C41.9791 39.5685 42.2355 39.981 42.5684 40.3237C42.887 40.639 43.2727 40.8741 43.6953 41.0106C44.1416 41.1585 44.608 41.2328 45.0771 41.2306C45.3274 41.2306 45.56 41.2214 45.7748 41.2029C45.9461 41.1897 46.116 41.1608 46.2823 41.1165L46.3651 41.093Z" fill="#FF61F6"/>
</g>
<defs>
<clipPath id="clip0_32952_2127">
<rect width="40" height="40" fill="white" transform="translate(16 16)"/>
</clipPath>
</defs>
</svg>
