<svg width="72" height="72" viewBox="0 0 72 72" fill="none" xmlns="http://www.w3.org/2000/svg">
<rect width="72" height="72" rx="16" fill="#E9EFFC"/>
<path d="M35.9997 52.6666C45.2044 52.6666 52.6663 45.2047 52.6663 36C52.6663 26.7952 45.2044 19.3333 35.9997 19.3333C26.7949 19.3333 19.333 26.7952 19.333 36C19.333 45.2047 26.7949 52.6666 35.9997 52.6666Z" stroke="#1846A1" stroke-width="2.5" stroke-linecap="round" stroke-linejoin="round"/>
<path d="M29.3333 21H31C27.75 30.7333 27.75 41.2667 31 51H29.3333" stroke="#1846A1" stroke-width="2.5" stroke-linecap="round" stroke-linejoin="round"/>
<path d="M41 21C44.25 30.7333 44.25 41.2667 41 51" stroke="#1846A1" stroke-width="2.5" stroke-linecap="round" stroke-linejoin="round"/>
<path d="M21 42.6667V41C30.7333 44.25 41.2667 44.25 51 41V42.6667" stroke="#1846A1" stroke-width="2.5" stroke-linecap="round" stroke-linejoin="round"/>
<path d="M21 31C30.7333 27.75 41.2667 27.75 51 31" stroke="#1846A1" stroke-width="2.5" stroke-linecap="round" stroke-linejoin="round"/>
</svg>
