<svg width="72" height="72" viewBox="0 0 72 72" fill="none" xmlns="http://www.w3.org/2000/svg">
<rect width="72" height="72" rx="16" fill="#E9EFFC"/>
<g clip-path="url(#clip0_32952_2141)">
<path d="M49.3594 16H22.6406C18.9731 16 16 19.0445 16 22.8V49.136C16 52.8915 18.9731 55.936 22.6406 55.936H49.3594C53.0269 55.936 56 52.8915 56 49.136V22.8C56 19.0445 53.0269 16 49.3594 16Z" fill="#001E36"/>
<path d="M25.0068 44.0056V26.4475C25.0068 26.3194 25.0605 26.2553 25.1679 26.2552L25.3378 26.2547L25.6281 26.2515L26.0315 26.2434L27.3831 26.2141L28.8323 26.1866C29.342 26.1775 29.8473 26.1729 30.3482 26.1728C31.7076 26.1728 32.8525 26.3468 33.7829 26.6949C34.6223 26.9854 35.3878 27.4641 36.0236 28.0961C36.5626 28.6439 36.9791 29.3049 37.2445 30.0334C37.4954 30.7425 37.6226 31.4911 37.6203 32.2453C37.6203 33.711 37.2893 34.92 36.6273 35.8723C35.9799 36.8014 35.077 37.5119 34.0336 37.9133L33.944 37.9469C32.8545 38.363 31.6479 38.5134 30.3246 38.5229L30.119 38.5235L29.8139 38.5219L29.66 38.5197L29.4884 38.5155L29.385 38.5113L29.3221 38.508L29.1676 38.5022L28.9787 38.4982L28.6943 38.4962L28.6311 38.496V43.9781C28.6358 44.0117 28.6328 44.0459 28.6223 44.0781C28.6118 44.1104 28.5941 44.1396 28.5707 44.1636C28.5473 44.1876 28.5187 44.2057 28.4872 44.2164C28.4558 44.2272 28.4223 44.2302 28.3895 44.2254H25.1948C25.0694 44.2255 25.0067 44.1523 25.0068 44.0056ZM28.6312 29.5525V35.2792C28.8635 35.2976 29.0781 35.3068 29.275 35.3067H30.1606C30.7712 35.3046 31.3782 35.2115 31.9626 35.0304L32.0792 34.9931C32.6109 34.8315 33.086 34.5167 33.4478 34.0862C33.784 33.6802 33.9582 33.1206 33.9703 32.4075L33.9711 32.3277C33.9851 31.7961 33.8501 31.2717 33.5818 30.8165C33.3 30.3761 32.8924 30.0355 32.4146 29.8409C31.7909 29.5926 31.1246 29.4758 30.4557 29.4976L30.1154 29.4985L29.9007 29.5005L29.6959 29.5032L29.4068 29.509L29.1959 29.515L29.0864 29.5192L28.94 29.5262L28.8153 29.5341L28.7442 29.5398L28.6828 29.5459L28.6557 29.5491L28.6312 29.5525ZM47.9953 34.2379C47.5271 33.9917 47.0307 33.8066 46.5175 33.6872L46.3987 33.6609C45.8341 33.5283 45.2577 33.4552 44.6786 33.4429L44.5339 33.4411C44.1943 33.4317 43.8553 33.4733 43.5276 33.5648C43.3191 33.6125 43.1337 33.7341 43.0042 33.9082C42.9167 34.0475 42.8701 34.2097 42.8701 34.3753C42.875 34.536 42.9316 34.6905 43.0311 34.8149C43.1735 34.9854 43.3447 35.1283 43.5365 35.2368L43.5947 35.2683C43.9772 35.4792 44.3714 35.6673 44.7753 35.8315C45.6758 36.1404 46.5362 36.5602 47.3378 37.0817C47.8838 37.4346 48.3357 37.9209 48.6528 38.497C48.9192 39.0423 49.0527 39.6456 49.0418 40.2553C49.0578 41.0606 48.833 41.8516 48.3978 42.5224C47.9317 43.2032 47.2844 43.7325 46.5328 44.0472C45.7457 44.4013 44.7792 44.5844 43.6332 44.5963L43.5142 44.597C42.8038 44.6042 42.0944 44.5405 41.3961 44.4069L41.2467 44.3771C40.6587 44.2667 40.0864 44.0821 39.5428 43.8275C39.4881 43.7987 39.4419 43.7555 39.4089 43.7023C39.3759 43.6492 39.3573 43.588 39.355 43.5251V40.5302C39.3517 40.5012 39.3563 40.4717 39.3681 40.4451C39.38 40.4185 39.3986 40.3956 39.4221 40.379C39.4452 40.3656 39.4716 40.3598 39.498 40.3622C39.5244 40.3647 39.5494 40.3754 39.5696 40.3928C40.2116 40.7804 40.9087 41.0631 41.6357 41.2309C42.2766 41.3954 42.934 41.4831 43.5947 41.492C44.2206 41.492 44.6812 41.4095 44.9765 41.2446C45.1098 41.182 45.2226 41.0813 45.3011 40.9545C45.3797 40.8277 45.4208 40.6804 45.4193 40.5302C45.4193 40.2924 45.2852 40.0634 45.0168 39.8433C44.9043 39.7512 44.743 39.6509 44.5329 39.5426L44.4325 39.492L44.3253 39.4403L44.269 39.4141L44.1512 39.3606L44.0898 39.3334L43.9617 39.2784L43.895 39.2504L43.7565 39.1936L43.6847 39.1648L43.5357 39.1061L43.38 39.0464C42.5373 38.7463 41.7384 38.3304 41.0051 37.8099C40.4806 37.4364 40.0487 36.9424 39.744 36.3673C39.4802 35.8259 39.3468 35.2276 39.355 34.6226C39.3533 33.8955 39.5483 33.1822 39.9184 32.5618C40.3403 31.8786 40.9459 31.3345 41.6626 30.9957C42.4496 30.5929 43.4335 30.3914 44.6142 30.391C45.3058 30.3853 45.9967 30.4359 46.6804 30.5422C47.1755 30.6066 47.6596 30.7407 48.1189 30.9406C48.1928 30.9624 48.2523 31.0182 48.2798 31.0918C48.2981 31.1589 48.307 31.2281 48.3067 31.2979V34.0731C48.3106 34.1387 48.2798 34.2016 48.2262 34.2379C48.1903 34.2562 48.1508 34.2657 48.1107 34.2657C48.0707 34.2657 48.0312 34.2562 47.9953 34.2379Z" fill="#31A8FF"/>
</g>
<defs>
<clipPath id="clip0_32952_2141">
<rect width="40" height="40" fill="white" transform="translate(16 16)"/>
</clipPath>
</defs>
</svg>
