<svg width="132" height="20" viewBox="0 0 132 20" fill="none" xmlns="http://www.w3.org/2000/svg">
<path d="M11.4421 2.92507L12.9087 5.85841C13.1087 6.26674 13.6421 6.65841 14.0921 6.73341L16.7504 7.17507C18.4504 7.45841 18.8504 8.69174 17.6254 9.90841L15.5587 11.9751C15.2087 12.3251 15.0171 13.0001 15.1254 13.4834L15.7171 16.0417C16.1837 18.0667 15.1087 18.8501 13.3171 17.7917L10.8254 16.3167C10.3754 16.0501 9.63375 16.0501 9.17541 16.3167L6.68375 17.7917C4.90041 18.8501 3.81708 18.0584 4.28375 16.0417L4.87541 13.4834C4.98375 13.0001 4.79208 12.3251 4.44208 11.9751L2.37541 9.90841C1.15875 8.69174 1.55041 7.45841 3.25041 7.17507L5.90875 6.73341C6.35041 6.65841 6.88375 6.26674 7.08375 5.85841L8.55041 2.92507C9.35041 1.33341 10.6504 1.33341 11.4421 2.92507Z" fill="#2263E3"/>
<path d="M39.4421 2.92507L40.9087 5.85841C41.1087 6.26674 41.6421 6.65841 42.0921 6.73341L44.7504 7.17507C46.4504 7.45841 46.8504 8.69174 45.6254 9.90841L43.5587 11.9751C43.2087 12.3251 43.0171 13.0001 43.1254 13.4834L43.7171 16.0417C44.1837 18.0667 43.1087 18.8501 41.3171 17.7917L38.8254 16.3167C38.3754 16.0501 37.6337 16.0501 37.1754 16.3167L34.6837 17.7917C32.9004 18.8501 31.8171 18.0584 32.2837 16.0417L32.8754 13.4834C32.9837 13.0001 32.7921 12.3251 32.4421 11.9751L30.3754 9.90841C29.1587 8.69174 29.5504 7.45841 31.2504 7.17507L33.9087 6.73341C34.3504 6.65841 34.8837 6.26674 35.0837 5.85841L36.5504 2.92507C37.3504 1.33341 38.6504 1.33341 39.4421 2.92507Z" fill="#2263E3"/>
<path d="M67.4421 2.92507L68.9087 5.85841C69.1087 6.26674 69.6421 6.65841 70.0921 6.73341L72.7504 7.17507C74.4504 7.45841 74.8504 8.69174 73.6254 9.90841L71.5587 11.9751C71.2087 12.3251 71.0171 13.0001 71.1254 13.4834L71.7171 16.0417C72.1837 18.0667 71.1087 18.8501 69.3171 17.7917L66.8254 16.3167C66.3754 16.0501 65.6337 16.0501 65.1754 16.3167L62.6837 17.7917C60.9004 18.8501 59.8171 18.0584 60.2837 16.0417L60.8754 13.4834C60.9837 13.0001 60.7921 12.3251 60.4421 11.9751L58.3754 9.90841C57.1587 8.69174 57.5504 7.45841 59.2504 7.17507L61.9087 6.73341C62.3504 6.65841 62.8837 6.26674 63.0837 5.85841L64.5504 2.92507C65.3504 1.33341 66.6504 1.33341 67.4421 2.92507Z" fill="#2263E3"/>
<path d="M95.4421 2.92507L96.9087 5.85841C97.1087 6.26674 97.6421 6.65841 98.0921 6.73341L100.75 7.17507C102.45 7.45841 102.85 8.69174 101.625 9.90841L99.5587 11.9751C99.2087 12.3251 99.0171 13.0001 99.1254 13.4834L99.7171 16.0417C100.184 18.0667 99.1087 18.8501 97.3171 17.7917L94.8254 16.3167C94.3754 16.0501 93.6337 16.0501 93.1754 16.3167L90.6837 17.7917C88.9004 18.8501 87.8171 18.0584 88.2837 16.0417L88.8754 13.4834C88.9837 13.0001 88.7921 12.3251 88.4421 11.9751L86.3754 9.90841C85.1587 8.69174 85.5504 7.45841 87.2504 7.17507L89.9087 6.73341C90.3504 6.65841 90.8837 6.26674 91.0837 5.85841L92.5504 2.92507C93.3504 1.33341 94.6504 1.33341 95.4421 2.92507Z" fill="#2263E3"/>
<path d="M123.442 2.92507L124.909 5.85841C125.109 6.26674 125.642 6.65841 126.092 6.73341L128.75 7.17507C130.45 7.45841 130.85 8.69174 129.625 9.90841L127.559 11.9751C127.209 12.3251 127.017 13.0001 127.125 13.4834L127.717 16.0417C128.184 18.0667 127.109 18.8501 125.317 17.7917L122.825 16.3167C122.375 16.0501 121.634 16.0501 121.175 16.3167L118.684 17.7917C116.9 18.8501 115.817 18.0584 116.284 16.0417L116.875 13.4834C116.984 13.0001 116.792 12.3251 116.442 11.9751L114.375 9.90841C113.159 8.69174 113.55 7.45841 115.25 7.17507L117.909 6.73341C118.35 6.65841 118.884 6.26674 119.084 5.85841L120.55 2.92507C121.35 1.33341 122.65 1.33341 123.442 2.92507Z" fill="#2263E3"/>
</svg>
