<svg width="72" height="72" viewBox="0 0 72 72" fill="none" xmlns="http://www.w3.org/2000/svg">
<rect width="72" height="72" rx="16" fill="#E9EFFC"/>
<g clip-path="url(#clip0_32952_2111)">
<path d="M28 60C32.416 60 36 56.416 36 52V44H28C23.584 44 20 47.584 20 52C20 56.416 23.584 60 28 60Z" fill="#0ACF83"/>
<path d="M20 36C20 31.584 23.584 28 28 28H36V44H28C23.584 44 20 40.416 20 36Z" fill="#A259FF"/>
<path d="M20 20C20 15.584 23.584 12 28 12H36V28H28C23.584 28 20 24.416 20 20Z" fill="#F24E1E"/>
<path d="M36 12H44C48.416 12 52 15.584 52 20C52 24.416 48.416 28 44 28H36V12Z" fill="#FF7262"/>
<path d="M52 36C52 40.416 48.416 44 44 44C39.584 44 36 40.416 36 36C36 31.584 39.584 28 44 28C48.416 28 52 31.584 52 36Z" fill="#1ABCFE"/>
</g>
<defs>
<clipPath id="clip0_32952_2111">
<rect width="32" height="48" fill="white" transform="translate(20 12)"/>
</clipPath>
</defs>
</svg>
