<svg width="72" height="72" viewBox="0 0 72 72" fill="none" xmlns="http://www.w3.org/2000/svg">
<rect width="72" height="72" rx="16" fill="#E9EFFC"/>
<g clip-path="url(#clip0_32952_2154)">
<path d="M49.3594 16H22.6406C18.9731 16 16 19.0445 16 22.8V49.136C16 52.8915 18.9731 55.936 22.6406 55.936H49.3594C53.0269 55.936 56 52.8915 56 49.136V22.8C56 19.0445 53.0269 16 49.3594 16Z" fill="#330000"/>
<path d="M35.3835 39.9664H29.1851L27.9239 43.9781C27.9067 44.0512 27.8651 44.116 27.8064 44.1611C27.7476 44.2063 27.6752 44.229 27.6018 44.2254H24.4623C24.2833 44.2254 24.2207 44.1246 24.2745 43.923L29.6412 28.0962C29.6948 27.9314 29.7485 27.7436 29.8021 27.533C29.8725 27.1662 29.9084 26.7938 29.9095 26.4202C29.9058 26.394 29.9082 26.3674 29.9163 26.3423C29.9245 26.3173 29.9382 26.2945 29.9564 26.2758C29.9746 26.2572 29.9968 26.2431 30.0213 26.2347C30.0458 26.2264 30.0718 26.224 30.0973 26.2277H34.3639C34.4889 26.2277 34.5604 26.2735 34.5785 26.3653L40.6696 43.9506C40.7233 44.134 40.6696 44.2256 40.5087 44.2254H37.0203C36.9604 44.2321 36.9001 44.2163 36.8508 44.1809C36.8014 44.1456 36.7663 44.093 36.752 44.0331L35.3835 39.9664ZM30.151 36.5043H34.3907L34.3303 36.3L34.2332 35.9765L34.164 35.7493L34.0535 35.3915L33.8187 34.6384L33.6121 33.9707L33.0757 32.2315C32.9422 31.7992 32.8141 31.3651 32.6914 30.9294L32.5932 30.5758L32.4785 30.1578L32.3035 29.5098L32.2707 29.3877H32.244C32.1097 30.0472 31.9462 30.7001 31.754 31.3445L31.3559 32.6558L31.1368 33.3803L30.9157 34.1138C30.8758 34.2462 30.836 34.3772 30.7962 34.5067L30.6774 34.8904L30.5593 35.2651L30.4418 35.6306L30.325 35.9869C30.2862 36.1042 30.2475 36.2199 30.2089 36.3341L30.151 36.5043ZM44.2918 29.1403C44.0182 29.1515 43.7453 29.1035 43.4909 28.9993C43.2366 28.8952 43.0067 28.7372 42.816 28.5358C42.6261 28.3256 42.4785 28.079 42.3818 27.8102C42.285 27.5415 42.2411 27.2558 42.2525 26.9696C42.2427 26.6862 42.2915 26.404 42.3955 26.1412C42.4995 25.8785 42.6565 25.6412 42.8562 25.4448C43.2414 25.0662 43.7543 24.8543 44.2882 24.8533L44.3454 24.8539C44.9895 24.8539 45.4949 25.0508 45.8617 25.4446C46.0467 25.6493 46.1906 25.8894 46.285 26.151C46.3793 26.4127 46.4224 26.6909 46.4117 26.9696C46.423 27.257 46.3778 27.5437 46.2787 27.8128C46.1796 28.0819 46.0286 28.3279 45.8348 28.536C45.6392 28.7334 45.407 28.8888 45.1518 28.9929C44.8967 29.097 44.6238 29.1479 44.3492 29.1424L44.2918 29.1403ZM42.4403 43.9506V30.8165C42.4402 30.6516 42.5117 30.5691 42.655 30.5691H45.9556C46.0986 30.5691 46.1702 30.6516 46.1703 30.8165V43.9506C46.1703 44.134 46.0987 44.2256 45.9556 44.2254H42.6818C42.5293 44.2254 42.4491 44.1432 42.441 43.9787L42.4403 43.9506Z" fill="#FF9A00"/>
</g>
<defs>
<clipPath id="clip0_32952_2154">
<rect width="40" height="40" fill="white" transform="translate(16 16)"/>
</clipPath>
</defs>
</svg>
