<svg width="32" height="32" viewBox="0 0 32 32" fill="none" xmlns="http://www.w3.org/2000/svg">
<path d="M22.667 4.66663H9.33366C5.33366 4.66663 2.66699 6.66663 2.66699 11.3333V20.6666C2.66699 25.3333 5.33366 27.3333 9.33366 27.3333H22.667C26.667 27.3333 29.3337 25.3333 29.3337 20.6666V11.3333C29.3337 6.66663 26.667 4.66663 22.667 4.66663ZM23.2937 12.7866L19.1203 16.12C18.2403 16.8266 17.1203 17.1733 16.0003 17.1733C14.8803 17.1733 13.747 16.8266 12.8803 16.12L8.70699 12.7866C8.28033 12.44 8.21366 11.8 8.54699 11.3733C8.89366 10.9466 9.52033 10.8666 9.94699 11.2133L14.1203 14.5466C15.1337 15.36 16.8537 15.36 17.867 14.5466L22.0403 11.2133C22.467 10.8666 23.107 10.9333 23.4403 11.3733C23.787 11.8 23.7203 12.44 23.2937 12.7866Z" fill="#2263E3"/>
</svg>
